# xmcd
#
# Track frame offsets:
#	150
#	15732
#	33972
#	60296
#	79226
#	94254
#	131378
#	144495
#	170728
#	199317
#	242043
#	277814
#
# Disc length: 4244 seconds
#
# Revision: 1
# Processed by: cddbd v1.5PL3 Copyright (c) Steve Scherf et al.
# Submitted via: audiograbber 1.83.01
#
DISCID=9e10920c
DTITLE=Kelly Burke, Scott Rawls - Middle Voices: Music For Clarinet And Viola
DYEAR=2002
DGENRE=Classical
TTITLE0=Prelude, Allegro And Patorale: Prelude
TTITLE1=Prelude, Allegro And Patorale: Allegro
TTITLE2=Prelude, Allegro And Patorale: Pastorale
TTITLE3=The Household Muses: Moderato
TTITLE4=The Household Muses: Allegro Giocoso
TTITLE5=The Household Muses: Lento Expressivo
TTITLE6=The Household Muses: Allegro Energico
TTITLE7=Rapsodies Pour Voix, Clarinette, Alto Et Piano: L'etang
TTITLE8=Rapsodies Pour Voix, Clarinette, Alto Et Piano: La Cornrmuse
TTITLE9=Rapsodies Pour Voix, Clarinette, Alto Et Piano: La Villanelle Du Diable
TTITLE10=Schism
TTITLE11=Margritte Variations
EXTD=
EXTT0=
EXTT1=
EXTT2=
EXTT3=
EXTT4=
EXTT5=
EXTT6=
EXTT7=
EXTT8=
EXTT9=
EXTT10=
EXTT11=
PLAYORDER=
